<mxfile host="app.diagrams.net" agent="Mozilla/5.0 (Windows NT 10.0; Win64; x64) AppleWebKit/537.36 (KHTML, like Gecko) Chrome/128.0.0.0 Safari/537.36 Edg/128.0.0.0" version="24.7.12">
  <diagram name="Page-1" id="GJvNtQZWxEFX7HvLYiD3">
    <mxGraphModel dx="1455" dy="928" grid="1" gridSize="10" guides="1" tooltips="1" connect="1" arrows="1" fold="1" page="1" pageScale="1" pageWidth="850" pageHeight="1100" math="0" shadow="0">
      <root>
        <mxCell id="0" />
        <mxCell id="1" parent="0" />
        <mxCell id="cpsZQK-FLdE7OVAf6ZgJ-1" value="PROGRAM&amp;nbsp;&lt;span style=&quot;background-color: initial;&quot;&gt;CONTROL&amp;nbsp;&lt;/span&gt;&lt;span style=&quot;background-color: initial;&quot;&gt;UNIT&lt;/span&gt;&lt;div&gt;&lt;span style=&quot;background-color: initial;&quot;&gt;(CPU)&lt;/span&gt;&lt;/div&gt;" style="rounded=1;whiteSpace=wrap;html=1;fontSize=20;strokeWidth=2;" parent="1" vertex="1">
          <mxGeometry x="30" y="580" width="750" height="80" as="geometry" />
        </mxCell>
        <mxCell id="cpsZQK-FLdE7OVAf6ZgJ-24" value="" style="edgeStyle=orthogonalEdgeStyle;rounded=0;orthogonalLoop=1;jettySize=auto;html=1;strokeWidth=2;" parent="1" source="cpsZQK-FLdE7OVAf6ZgJ-2" edge="1">
          <mxGeometry relative="1" as="geometry">
            <mxPoint x="90" y="580" as="targetPoint" />
          </mxGeometry>
        </mxCell>
        <mxCell id="cpsZQK-FLdE7OVAf6ZgJ-2" value="&lt;div&gt;INPUT&lt;/div&gt;&lt;div&gt;KEYPAD&lt;/div&gt;" style="rounded=0;whiteSpace=wrap;html=1;strokeWidth=2;fontSize=20;" parent="1" vertex="1">
          <mxGeometry x="30" y="470" width="120" height="70" as="geometry" />
        </mxCell>
        <mxCell id="cpsZQK-FLdE7OVAf6ZgJ-7" value="" style="edgeStyle=orthogonalEdgeStyle;rounded=0;orthogonalLoop=1;jettySize=auto;html=1;strokeWidth=2;startArrow=classic;startFill=1;entryX=0.267;entryY=-0.001;entryDx=0;entryDy=0;entryPerimeter=0;" parent="1" source="cpsZQK-FLdE7OVAf6ZgJ-6" target="cpsZQK-FLdE7OVAf6ZgJ-1" edge="1">
          <mxGeometry relative="1" as="geometry">
            <mxPoint x="660" y="215" as="targetPoint" />
            <Array as="points">
              <mxPoint x="230" y="560" />
              <mxPoint x="230" y="560" />
            </Array>
          </mxGeometry>
        </mxCell>
        <mxCell id="cpsZQK-FLdE7OVAf6ZgJ-6" value="&lt;div&gt;CARD READER&lt;/div&gt;" style="rounded=0;whiteSpace=wrap;html=1;strokeWidth=2;fontSize=20;" parent="1" vertex="1">
          <mxGeometry x="170" y="470" width="120" height="70" as="geometry" />
        </mxCell>
        <mxCell id="cpsZQK-FLdE7OVAf6ZgJ-11" value="" style="edgeStyle=orthogonalEdgeStyle;rounded=0;orthogonalLoop=1;jettySize=auto;html=1;strokeWidth=2;" parent="1" source="cpsZQK-FLdE7OVAf6ZgJ-8" target="cpsZQK-FLdE7OVAf6ZgJ-10" edge="1">
          <mxGeometry relative="1" as="geometry" />
        </mxCell>
        <mxCell id="cpsZQK-FLdE7OVAf6ZgJ-28" value="" style="edgeStyle=orthogonalEdgeStyle;rounded=0;orthogonalLoop=1;jettySize=auto;html=1;entryX=0.101;entryY=1.003;entryDx=0;entryDy=0;entryPerimeter=0;endArrow=none;endFill=0;startArrow=classic;startFill=1;strokeWidth=2;" parent="1" source="cpsZQK-FLdE7OVAf6ZgJ-8" target="cpsZQK-FLdE7OVAf6ZgJ-1" edge="1">
          <mxGeometry relative="1" as="geometry">
            <Array as="points">
              <mxPoint x="90" y="660" />
            </Array>
          </mxGeometry>
        </mxCell>
        <mxCell id="cpsZQK-FLdE7OVAf6ZgJ-8" value="&lt;div&gt;DISPLAY DRIVER&lt;/div&gt;" style="rounded=0;whiteSpace=wrap;html=1;strokeWidth=2;fontSize=20;" parent="1" vertex="1">
          <mxGeometry x="30" y="700" width="120" height="70" as="geometry" />
        </mxCell>
        <mxCell id="cpsZQK-FLdE7OVAf6ZgJ-10" value="LCD DISPLAY" style="rounded=0;whiteSpace=wrap;html=1;strokeWidth=2;fontSize=20;" parent="1" vertex="1">
          <mxGeometry x="30" y="810" width="120" height="70" as="geometry" />
        </mxCell>
        <mxCell id="cpsZQK-FLdE7OVAf6ZgJ-13" value="" style="edgeStyle=orthogonalEdgeStyle;rounded=0;orthogonalLoop=1;jettySize=auto;html=1;strokeWidth=2;startArrow=classic;startFill=1;entryX=0.453;entryY=0;entryDx=0;entryDy=0;entryPerimeter=0;" parent="1" source="cpsZQK-FLdE7OVAf6ZgJ-12" target="cpsZQK-FLdE7OVAf6ZgJ-1" edge="1">
          <mxGeometry relative="1" as="geometry">
            <mxPoint x="660" y="295" as="targetPoint" />
            <Array as="points">
              <mxPoint x="370" y="560" />
              <mxPoint x="370" y="560" />
            </Array>
          </mxGeometry>
        </mxCell>
        <mxCell id="cpsZQK-FLdE7OVAf6ZgJ-12" value="&lt;div&gt;SECURITY&lt;/div&gt;&lt;div&gt;MODULE&lt;/div&gt;" style="rounded=0;whiteSpace=wrap;html=1;strokeWidth=2;fontSize=20;" parent="1" vertex="1">
          <mxGeometry x="310" y="470" width="120" height="70" as="geometry" />
        </mxCell>
        <mxCell id="cpsZQK-FLdE7OVAf6ZgJ-14" value="&lt;div&gt;MEMORY&lt;/div&gt;" style="rounded=0;whiteSpace=wrap;html=1;strokeWidth=2;fontSize=20;" parent="1" vertex="1">
          <mxGeometry x="450" y="470" width="120" height="70" as="geometry" />
        </mxCell>
        <mxCell id="cpsZQK-FLdE7OVAf6ZgJ-19" value="" style="edgeStyle=orthogonalEdgeStyle;rounded=0;orthogonalLoop=1;jettySize=auto;html=1;strokeWidth=2;exitX=0.75;exitY=1;exitDx=0;exitDy=0;" parent="1" source="cpsZQK-FLdE7OVAf6ZgJ-16" target="cpsZQK-FLdE7OVAf6ZgJ-18" edge="1">
          <mxGeometry relative="1" as="geometry">
            <Array as="points">
              <mxPoint x="350" y="770" />
            </Array>
          </mxGeometry>
        </mxCell>
        <mxCell id="cpsZQK-FLdE7OVAf6ZgJ-16" value="&lt;div&gt;MOTOR DRIVER&lt;/div&gt;" style="rounded=0;whiteSpace=wrap;html=1;strokeWidth=2;fontSize=20;" parent="1" vertex="1">
          <mxGeometry x="170" y="700" width="230" height="70" as="geometry" />
        </mxCell>
        <mxCell id="cpsZQK-FLdE7OVAf6ZgJ-27" value="" style="edgeStyle=orthogonalEdgeStyle;rounded=0;orthogonalLoop=1;jettySize=auto;html=1;entryX=0.534;entryY=0.997;entryDx=0;entryDy=0;entryPerimeter=0;strokeWidth=2;" parent="1" source="cpsZQK-FLdE7OVAf6ZgJ-18" target="cpsZQK-FLdE7OVAf6ZgJ-1" edge="1">
          <mxGeometry relative="1" as="geometry">
            <mxPoint x="480" y="890" as="targetPoint" />
            <Array as="points">
              <mxPoint x="430" y="735" />
              <mxPoint x="430" y="735" />
            </Array>
          </mxGeometry>
        </mxCell>
        <mxCell id="cpsZQK-FLdE7OVAf6ZgJ-18" value="&lt;div&gt;CASH COUNTER&lt;/div&gt;" style="rounded=0;whiteSpace=wrap;html=1;strokeWidth=2;fontSize=20;" parent="1" vertex="1">
          <mxGeometry x="310" y="810" width="150" height="70" as="geometry" />
        </mxCell>
        <mxCell id="cpsZQK-FLdE7OVAf6ZgJ-22" value="" style="edgeStyle=orthogonalEdgeStyle;rounded=0;orthogonalLoop=1;jettySize=auto;html=1;strokeWidth=2;endArrow=none;endFill=0;startArrow=classic;startFill=1;" parent="1" source="cpsZQK-FLdE7OVAf6ZgJ-21" edge="1">
          <mxGeometry relative="1" as="geometry">
            <mxPoint x="235" y="770" as="targetPoint" />
            <Array as="points">
              <mxPoint x="235" y="780" />
              <mxPoint x="235" y="780" />
            </Array>
          </mxGeometry>
        </mxCell>
        <mxCell id="cpsZQK-FLdE7OVAf6ZgJ-21" value="&lt;div&gt;CASH DISPENSER&lt;/div&gt;" style="rounded=0;whiteSpace=wrap;html=1;strokeWidth=2;fontSize=20;" parent="1" vertex="1">
          <mxGeometry x="170" y="810" width="130" height="70" as="geometry" />
        </mxCell>
        <mxCell id="y8AsWwP-QqyLOBC0gL-d-1" value="" style="edgeStyle=orthogonalEdgeStyle;rounded=0;orthogonalLoop=1;jettySize=auto;html=1;strokeWidth=2;" edge="1" parent="1" source="cpsZQK-FLdE7OVAf6ZgJ-23" target="cpsZQK-FLdE7OVAf6ZgJ-1">
          <mxGeometry relative="1" as="geometry" />
        </mxCell>
        <mxCell id="cpsZQK-FLdE7OVAf6ZgJ-23" value="POWER SUPPLY" style="rounded=0;whiteSpace=wrap;html=1;strokeWidth=2;fontSize=20;" parent="1" vertex="1">
          <mxGeometry x="840" y="580" width="120" height="80" as="geometry" />
        </mxCell>
        <mxCell id="cpsZQK-FLdE7OVAf6ZgJ-25" value="" style="edgeStyle=orthogonalEdgeStyle;rounded=0;orthogonalLoop=1;jettySize=auto;html=1;strokeWidth=2;startArrow=classic;startFill=1;entryX=0.78;entryY=0;entryDx=0;entryDy=0;entryPerimeter=0;" parent="1" edge="1">
          <mxGeometry relative="1" as="geometry">
            <mxPoint x="509.9" y="540" as="sourcePoint" />
            <mxPoint x="510.0999999999999" y="580" as="targetPoint" />
            <Array as="points">
              <mxPoint x="509.9" y="550" />
              <mxPoint x="509.9" y="550" />
            </Array>
          </mxGeometry>
        </mxCell>
        <mxCell id="cpsZQK-FLdE7OVAf6ZgJ-29" value="" style="edgeStyle=orthogonalEdgeStyle;rounded=0;orthogonalLoop=1;jettySize=auto;html=1;entryX=0.101;entryY=1.003;entryDx=0;entryDy=0;entryPerimeter=0;endArrow=none;endFill=0;startArrow=classic;startFill=1;strokeWidth=2;" parent="1" edge="1">
          <mxGeometry relative="1" as="geometry">
            <mxPoint x="284.82000000000005" y="700" as="sourcePoint" />
            <mxPoint x="284.82000000000005" y="660" as="targetPoint" />
            <Array as="points">
              <mxPoint x="284.82000000000005" y="660" />
            </Array>
          </mxGeometry>
        </mxCell>
        <mxCell id="cpsZQK-FLdE7OVAf6ZgJ-31" value="" style="edgeStyle=orthogonalEdgeStyle;rounded=0;orthogonalLoop=1;jettySize=auto;html=1;strokeWidth=2;startArrow=classic;startFill=1;" parent="1" edge="1">
          <mxGeometry relative="1" as="geometry">
            <mxPoint x="709.84" y="539.9999999999999" as="sourcePoint" />
            <mxPoint x="709.84" y="582" as="targetPoint" />
            <Array as="points">
              <mxPoint x="709.84" y="582" />
            </Array>
          </mxGeometry>
        </mxCell>
        <mxCell id="cpsZQK-FLdE7OVAf6ZgJ-33" value="" style="edgeStyle=orthogonalEdgeStyle;rounded=0;orthogonalLoop=1;jettySize=auto;html=1;strokeWidth=2;startArrow=classic;startFill=1;" parent="1" edge="1">
          <mxGeometry relative="1" as="geometry">
            <mxPoint x="709.84" y="470" as="sourcePoint" />
            <mxPoint x="709.84" y="430" as="targetPoint" />
          </mxGeometry>
        </mxCell>
        <mxCell id="cpsZQK-FLdE7OVAf6ZgJ-30" value="&lt;div&gt;INTERNET CONNECTIVITY&lt;/div&gt;" style="rounded=0;whiteSpace=wrap;html=1;strokeWidth=2;fontSize=20;" parent="1" vertex="1">
          <mxGeometry x="610" y="470" width="200" height="70" as="geometry" />
        </mxCell>
        <mxCell id="cpsZQK-FLdE7OVAf6ZgJ-32" value="&lt;div&gt;DATABASE&lt;/div&gt;" style="rounded=0;whiteSpace=wrap;html=1;strokeWidth=2;fontSize=20;" parent="1" vertex="1">
          <mxGeometry x="610" y="360" width="200" height="70" as="geometry" />
        </mxCell>
        <mxCell id="cpsZQK-FLdE7OVAf6ZgJ-35" value="" style="edgeStyle=orthogonalEdgeStyle;rounded=0;orthogonalLoop=1;jettySize=auto;html=1;entryX=0.754;entryY=0.98;entryDx=0;entryDy=0;entryPerimeter=0;strokeWidth=2;startArrow=classic;startFill=1;endArrow=none;endFill=0;" parent="1" edge="1">
          <mxGeometry relative="1" as="geometry">
            <mxPoint x="579.8599999999999" y="701.61" as="sourcePoint" />
            <mxPoint x="579.8599999999999" y="660.0099999999999" as="targetPoint" />
            <Array as="points">
              <mxPoint x="579.36" y="659.61" />
            </Array>
          </mxGeometry>
        </mxCell>
        <mxCell id="cpsZQK-FLdE7OVAf6ZgJ-34" value="&lt;div&gt;RECEIPT PRINTER&lt;/div&gt;" style="rounded=0;whiteSpace=wrap;html=1;strokeWidth=2;fontSize=20;" parent="1" vertex="1">
          <mxGeometry x="480" y="700" width="200" height="70" as="geometry" />
        </mxCell>
      </root>
    </mxGraphModel>
  </diagram>
</mxfile>
